<?xml version="1.0" encoding="UTF-8"?>
<svg id="Layer_1" xmlns="http://www.w3.org/2000/svg" width="200" height="200" viewBox="0 0 200 200">
  <g id="Layer_2">
    <g>
      <path id="_x3C_Radius_x3E_" d="M100,0h0c55.23,0,100,44.77,100,100h0c0,55.23-44.77,100-100,100h0C44.77,200,0,155.23,0,100h0C0,44.77,44.77,0,100,0Z" style="fill: #00b666;"/>
      <path d="M152.8,68.3l-111.1,31.7,111.1,31.7v31.8h-63.5l-63.5-63.5,63.5-63.5h63.5v31.8Z"/>
    </g>
    <g id="Layer_1-2">
      <path d="M167.6,159.6c0,16.2-13.1,29.4-29.4,29.4s-29.4-13.1-29.4-29.4,2.5-13.4,6.6-18.5c.3-.4.6-.8,1-1.1,5.4-5.9,13.1-9.7,21.8-9.7s11,1.6,15.5,4.4c3.8,2.3,7,5.5,9.4,9.3,2.9,4.6,4.5,9.9,4.5,15.7h0v-.1Z" style="fill: #fff;"/>
      <path d="M127.9,174.2h5.3l5-16.8,5,16.8h5.3l7.4-25.2h-5.5l-4.9,17.2-5.2-17.2h-4.6l-5.1,17.2-4.8-17.2h-5.5l7.5,25.2h.1Z"/>
    </g>
  </g>
</svg>